<svg aria-hidden="true" style="position:absolute;width:0;height:0" xmlns="http://www.w3.org/2000/svg" overflow="hidden"><defs><symbol id="icon-logo" viewBox="0 0 33 32"><path fill="var(--color1, #121920)" d="M16.628.089a15.907 15.907 0 0115.308 10.406 15.918 15.918 0 01.417 9.711 2.66 2.66 0 11-5.129-1.405 10.594 10.594 0 00-4.263-11.564 10.588 10.588 0 00-12.318.293 10.595 10.595 0 00-3.71 11.754 10.597 10.597 0 009.917 7.315 2.66 2.66 0 01-.078 5.319A15.911 15.911 0 011.876 20.93 15.917 15.917 0 017.449 3.277 15.91 15.91 0 0116.63.09z"/><path fill="var(--color2, #f95a59)" d="M28.974 26.357a4.033 4.033 0 11-8.065 0 4.033 4.033 0 018.065 0z"/></symbol><symbol id="icon-logo-text" viewBox="0 0 154 32"><path fill="var(--color2, #f95a59)" d="M34.331 30.333h-7.968l-1.126-1.472a46.873 46.873 0 01-4.157 1.386 18.7 18.7 0 01-3.984.433c-4.85 0-8.66-1.212-11.345-3.551-2.858-2.425-4.244-6.149-4.244-10.912 0-4.85 1.299-8.574 3.811-11.085 2.598-2.511 6.495-3.811 11.778-3.811 5.11 0 9.007 1.386 11.692 4.07 2.338 2.338 3.464 5.369 3.464 9.007 0 2.685-.087 4.677-.346 5.889-.346 1.905-1.212 3.724-2.425 5.369l4.85 4.677zm-9.094-14.376c0-2.598-.52-4.677-1.645-6.322-1.386-2.079-3.637-3.118-6.582-3.118-2.771 0-4.936.779-6.322 2.425-1.386 1.559-2.079 3.897-2.079 6.928 0 3.378.779 5.889 2.425 7.448 1.472 1.386 3.637 2.078 6.495 2.078 2.598 0 4.504-.779 5.803-2.338 1.299-1.645 1.905-3.984 1.905-7.102zM64.383 21.413c0 2.512-.866 4.59-2.511 6.322s-3.724 2.511-6.322 2.511H35.631v-5.11h16.541c1.126 0 2.079-.26 2.771-.779.866-.606 1.299-1.386 1.299-2.425 0-2.425-1.732-3.637-5.11-3.637h-8.314c-2.425 0-4.504-.78-6.322-2.252s-2.685-3.378-2.685-5.716c0-2.511.866-4.59 2.685-6.149 1.732-1.559 4.07-2.338 7.015-2.338H62.65v4.85H45.676c-.78 0-1.559.346-2.252.953-.866.606-1.212 1.386-1.212 2.252 0 .953.346 1.819 1.126 2.425.78.693 1.645.953 2.685.953h9.18c2.858 0 5.11.779 6.755 2.252s2.425 3.464 2.425 5.889zM97.119 15.957c0 5.543-1.559 9.44-4.59 11.865-2.512 1.905-6.149 2.858-10.825 2.858-5.283 0-9.18-1.126-11.692-3.291-2.771-2.425-4.157-6.322-4.157-11.692 0-4.417 1.212-7.881 3.724-10.306 2.685-2.685 6.668-3.984 12.038-3.984 5.889 0 9.959 1.299 12.384 3.811 2.078 2.252 3.118 5.802 3.118 10.739zm-7.275-.173c0-2.771-.693-5.023-1.992-6.668-1.472-1.819-3.724-2.771-6.582-2.771s-5.023.953-6.495 2.945c-1.212 1.645-1.819 3.811-1.819 6.409 0 3.031.52 5.283 1.472 6.755 1.386 1.992 3.811 3.031 7.535 3.031 3.118 0 5.283-.953 6.495-2.945.953-1.386 1.386-3.724 1.386-6.755zM125.611 18.382h-19.572V30.16h-7.015V12.753c0-1.039.173-2.252.606-3.551.779-2.338 2.252-4.07 4.417-5.283 2.511-1.386 6.668-2.078 12.384-2.078h36.633v4.763h-10.566V30.16h-6.582V6.604c-6.755 0-13.164-.087-19.919-.087-2.598 0-4.417.173-5.456.433-1.819.433-3.031 1.472-3.811 2.944-.606 1.126-.866 2.338-.866 3.724h19.746v4.763z"/></symbol><symbol id="icon-henkel" viewBox="0 0 57 32"><path fill="var(--color3, #fff)" d="M.724 16.001C.724 7.243 13.519.722 28.289.722s27.572 6.521 27.572 15.279c0 8.76-12.802 15.266-27.572 15.266S.724 24.762.724 16.001z"/><path fill="var(--color4, #ec1b23)" d="M28.289 0c15.619 0 28.296 7.169 28.296 16.001C56.585 24.834 43.908 32 28.289 32 12.676 32 0 24.833 0 16.001 0 7.17 12.677 0 28.289 0zm0 1.443C13.466 1.443 1.428 7.978 1.428 16c0 8.026 12.038 14.545 26.861 14.545S55.15 24.026 55.15 16c0-8.023-12.038-14.557-26.861-14.557zM23.32 17.537h-5.568c.066 1.391.836 2.036 1.988 2.036.856 0 1.441-.489 1.593-.982h1.823c-.467 1.683-1.823 2.462-3.495 2.462-2.37 0-3.844-1.655-3.844-4.019 0-2.29 1.56-4.034 3.844-4.034 2.567 0 3.804 2.187 3.66 4.536zm-3.712-3.094c-1.158 0-1.751.782-1.843 1.783h3.614c-.138-1.068-.579-1.783-1.771-1.783zm27.822 3.094h-5.568c.059 1.391.836 2.036 1.981 2.036.862 0 1.448-.489 1.599-.982h1.823c-.467 1.683-1.823 2.462-3.495 2.462-2.376 0-3.844-1.655-3.844-4.019 0-2.29 1.56-4.034 3.844-4.034 2.567 0 3.804 2.187 3.66 4.536zm-3.719-3.094c-1.152 0-1.744.782-1.843 1.783h3.62c-.138-1.068-.579-1.783-1.777-1.783zM6.075 20.846h2.067v-4.551h4.463v4.551h2.067v-10.57h-2.067v4.328H8.142v-4.328H6.075v10.57zm18.384 0h1.948v-4.132c0-1.552.54-2.187 1.659-2.187.961 0 1.395.621 1.395 1.876v4.443h1.942v-4.699c0-1.891-.553-3.147-2.758-3.147-.869 0-1.777.414-2.297 1.271h-.046v-1.064h-1.843v7.639zm8.602 0h1.942v-4.137l2.87 4.137h2.416L37.13 16.56l2.797-3.352H37.61l-2.606 3.293v-6.225h-1.942v10.57zm15.508 0h1.941v-10.57h-1.941v10.57z"/></symbol><symbol id="icon-profile" viewBox="0 0 32 32"><path fill="var(--color5, #34aadd)" d="M15.434 16.933c-5.216 0-9.531 3.915-10.161 8.963-.088.701.494 1.277 1.201 1.277s1.269-.577 1.386-1.275c.609-3.63 3.774-6.405 7.574-6.405s6.965 2.775 7.574 6.405c.117.697.679 1.275 1.386 1.275s1.288-.576 1.201-1.277c-.63-5.047-4.945-8.963-10.161-8.963z"/><path fill="none" stroke="var(--color5, #34aadd)" stroke-width="2.56" d="M15.434 14.373c2.824 0 5.12-2.296 5.12-5.12s-2.296-5.12-5.12-5.12c-2.824 0-5.12 2.296-5.12 5.12s2.296 5.12 5.12 5.12"/></symbol><symbol id="icon-search" viewBox="0 0 32 32"><path fill="none" stroke="var(--color6, #768298)" stroke-linejoin="round" stroke-linecap="round" stroke-width="2.4" d="M26.667 26.667l-6.538-6.538m-.001-.001a8.667 8.667 0 00-6.129-14.795 8.667 8.667 0 106.128 14.796z"/></symbol></defs></svg>