<svg aria-hidden="true" style="position:absolute;width:0;height:0" xmlns="http://www.w3.org/2000/svg" overflow="hidden"><defs><symbol id="icon-logo" viewBox="0 0 145 32"><path fill="var(--color1, #121920)" d="M16.628.089a15.907 15.907 0 0115.308 10.406 15.918 15.918 0 01.417 9.711 2.66 2.66 0 11-5.129-1.405 10.594 10.594 0 00-4.263-11.564 10.588 10.588 0 00-12.318.293 10.595 10.595 0 00-3.71 11.754 10.597 10.597 0 009.917 7.315 2.66 2.66 0 01-.078 5.319A15.911 15.911 0 011.876 20.93 15.917 15.917 0 017.449 3.277 15.91 15.91 0 0116.63.09z"/><path fill="var(--color2, #f95a59)" d="M28.974 26.357a4.033 4.033 0 11-8.065 0 4.033 4.033 0 018.065 0zM65.554 25.555h-5.312l-.751-.982a31.101 31.101 0 01-2.771.924c-.808.173-1.674.289-2.656.289-3.233 0-5.774-.808-7.563-2.367-1.905-1.617-2.829-4.099-2.829-7.275 0-3.233.866-5.716 2.54-7.39 1.732-1.674 4.33-2.54 7.852-2.54 3.406 0 6.004.924 7.794 2.714 1.559 1.559 2.309 3.58 2.309 6.005 0 1.79-.058 3.118-.231 3.926-.231 1.27-.808 2.483-1.617 3.58l3.233 3.118zm-6.062-9.584c0-1.732-.346-3.118-1.097-4.215-.924-1.386-2.425-2.079-4.388-2.079-1.848 0-3.291.52-4.215 1.617-.924 1.039-1.386 2.598-1.386 4.619 0 2.252.52 3.926 1.617 4.965.982.924 2.425 1.386 4.33 1.386 1.732 0 3.002-.52 3.868-1.559.866-1.097 1.27-2.656 1.27-4.734zM85.588 19.609c0 1.674-.577 3.06-1.674 4.215s-2.483 1.674-4.215 1.674H66.42v-3.406h11.028c.751 0 1.386-.173 1.848-.52.577-.404.866-.924.866-1.617 0-1.617-1.155-2.425-3.406-2.425h-5.543c-1.617 0-3.002-.52-4.215-1.501s-1.79-2.252-1.79-3.811c0-1.674.577-3.06 1.79-4.099 1.155-1.039 2.714-1.559 4.677-1.559h12.76v3.233H73.119c-.52 0-1.039.231-1.501.635-.577.404-.808.924-.808 1.501 0 .635.231 1.212.751 1.617.52.462 1.097.635 1.79.635h6.12c1.905 0 3.406.52 4.503 1.501s1.617 2.309 1.617 3.926zM107.412 15.971c0 3.695-1.039 6.293-3.06 7.91-1.674 1.27-4.099 1.905-7.217 1.905-3.522 0-6.12-.751-7.794-2.194-1.847-1.617-2.771-4.215-2.771-7.794 0-2.945.808-5.254 2.483-6.871 1.79-1.79 4.446-2.656 8.025-2.656 3.926 0 6.64.866 8.256 2.54 1.386 1.501 2.078 3.868 2.078 7.159zm-4.849-.115c0-1.848-.462-3.349-1.328-4.446-.981-1.212-2.483-1.848-4.388-1.848s-3.349.635-4.33 1.963c-.808 1.097-1.212 2.54-1.212 4.272 0 2.021.346 3.522.981 4.503.924 1.328 2.54 2.021 5.023 2.021 2.079 0 3.522-.635 4.33-1.963.635-.924.924-2.483.924-4.503zM126.407 17.588h-13.049v7.852h-4.676V13.835c0-.693.115-1.501.404-2.367.519-1.559 1.501-2.714 2.944-3.522 1.675-.924 4.446-1.386 8.256-1.386h24.422v3.175h-7.043v15.704h-4.388V9.735c-4.503 0-8.775-.058-13.279-.058-1.732 0-2.945.115-3.637.289-1.213.289-2.021.982-2.541 1.963-.404.751-.577 1.559-.577 2.483h13.164v3.175z"/></symbol><symbol id="icon-henkel" viewBox="0 0 57 32"><path fill="var(--color3, #fff)" d="M.724 16.001C.724 7.243 13.519.722 28.289.722s27.572 6.521 27.572 15.279c0 8.76-12.802 15.266-27.572 15.266S.724 24.762.724 16.001z"/><path fill="var(--color4, #ec1b23)" d="M28.289 0c15.619 0 28.296 7.169 28.296 16.001C56.585 24.834 43.908 32 28.289 32 12.676 32 0 24.833 0 16.001 0 7.17 12.677 0 28.289 0zm0 1.443C13.466 1.443 1.428 7.978 1.428 16c0 8.026 12.038 14.545 26.861 14.545S55.15 24.026 55.15 16c0-8.023-12.038-14.557-26.861-14.557zM23.32 17.537h-5.568c.066 1.391.836 2.036 1.988 2.036.856 0 1.441-.489 1.593-.982h1.823c-.467 1.683-1.823 2.462-3.495 2.462-2.37 0-3.844-1.655-3.844-4.019 0-2.29 1.56-4.034 3.844-4.034 2.567 0 3.804 2.187 3.66 4.536zm-3.712-3.094c-1.158 0-1.751.782-1.843 1.783h3.614c-.138-1.068-.579-1.783-1.771-1.783zm27.822 3.094h-5.568c.059 1.391.836 2.036 1.981 2.036.862 0 1.448-.489 1.599-.982h1.823c-.467 1.683-1.823 2.462-3.495 2.462-2.376 0-3.844-1.655-3.844-4.019 0-2.29 1.56-4.034 3.844-4.034 2.567 0 3.804 2.187 3.66 4.536zm-3.719-3.094c-1.152 0-1.744.782-1.843 1.783h3.62c-.138-1.068-.579-1.783-1.777-1.783zM6.075 20.846h2.067v-4.551h4.463v4.551h2.067v-10.57h-2.067v4.328H8.142v-4.328H6.075v10.57zm18.384 0h1.948v-4.132c0-1.552.54-2.187 1.659-2.187.961 0 1.395.621 1.395 1.876v4.443h1.942v-4.699c0-1.891-.553-3.147-2.758-3.147-.869 0-1.777.414-2.297 1.271h-.046v-1.064h-1.843v7.639zm8.602 0h1.942v-4.137l2.87 4.137h2.416L37.13 16.56l2.797-3.352H37.61l-2.606 3.293v-6.225h-1.942v10.57zm15.508 0h1.941v-10.57h-1.941v10.57z"/></symbol><symbol id="icon-profile" viewBox="0 0 32 32"><path fill="var(--color5, #34aadd)" d="M15.434 16.933c-5.216 0-9.531 3.915-10.161 8.963-.088.701.494 1.277 1.201 1.277s1.269-.577 1.386-1.275c.609-3.63 3.774-6.405 7.574-6.405s6.965 2.775 7.574 6.405c.117.697.679 1.275 1.386 1.275s1.288-.576 1.201-1.277c-.63-5.047-4.945-8.963-10.161-8.963z"/><path fill="none" stroke="var(--color5, #34aadd)" stroke-width="2.56" d="M15.434 14.373c2.824 0 5.12-2.296 5.12-5.12s-2.296-5.12-5.12-5.12c-2.824 0-5.12 2.296-5.12 5.12s2.296 5.12 5.12 5.12"/></symbol><symbol id="icon-search" viewBox="0 0 32 32"><path fill="none" stroke="var(--color6, #768298)" stroke-linejoin="round" stroke-linecap="round" stroke-width="2.4" d="M26.667 26.667l-6.538-6.538m-.001-.001a8.667 8.667 0 00-6.129-14.795 8.667 8.667 0 106.128 14.796z"/></symbol></defs></svg>